<svg xmlns="http://www.w3.org/2000/svg" width="288" height="426" fill="none"><path fill="#fff" d="M0 32C0 14.327 13.839 3.708 30.91 8.282l226.026 60.564c17.071 4.574 30.91 22.609 30.91 40.282v284c0 17.673-13.839 28.292-30.91 23.718L30.91 356.282C13.839 351.708 0 333.673 0 316V32Z"/><path fill="#22263B" d="M28.87 55.023c-2.458-.658-4.506-2.047-6.144-4.166-1.623-2.13-2.434-4.444-2.434-6.94 0-2.496.811-4.366 2.434-5.612 1.638-1.257 3.686-1.556 6.143-.898 1.948.522 3.648 1.554 5.1 3.095 1.469 1.53 2.411 3.206 2.829 5.03l-2.921-.783c-.356-1.071-.99-2.033-1.901-2.885a7.241 7.241 0 0 0-3.107-1.744c-1.7-.456-3.098-.247-4.195.627-1.098.874-1.646 2.175-1.646 3.903 0 1.728.548 3.323 1.646 4.785 1.097 1.462 2.495 2.421 4.195 2.877 1.16.31 2.195.284 3.107-.08.912-.364 1.545-.986 1.9-1.867l2.922.783c-.418 1.6-1.36 2.78-2.829 3.538-1.452.747-3.152.86-5.1.337Zm19.221 3.303c-1.159.89-2.596 1.104-4.312.645-1.715-.46-3.16-1.447-4.335-2.962-1.159-1.527-1.739-3.162-1.739-4.906 0-1.744.58-3.06 1.74-3.95 1.174-.901 2.619-1.122 4.334-.663 1.716.46 3.153 1.453 4.312 2.98 1.175 1.515 1.762 3.144 1.762 4.888 0 1.744-.587 3.067-1.762 3.968Zm-4.312-1.803c1.005.269 1.832.13 2.48-.416.665-.558.998-1.373.998-2.445 0-1.072-.333-2.057-.997-2.955-.65-.91-1.476-1.5-2.48-1.769-1.02-.273-1.863-.13-2.528.427-.649.546-.973 1.356-.973 2.428 0 1.072.324 2.063.973 2.973.665.898 1.507 1.483 2.527 1.757Zm7.943 4.336v-12l2.55.683v1.632c.727-1.053 1.901-1.362 3.524-.928a5.633 5.633 0 0 1 3.222 2.232c.804 1.127 1.206 2.45 1.206 3.97v7.225l-2.55-.684v-6.791c0-.96-.217-1.763-.65-2.407a2.965 2.965 0 0 0-1.761-1.288c-.881-.236-1.6-.084-2.156.455-.557.539-.835 1.432-.835 2.68v5.904l-2.55-.683Zm17.15 4.835c-1.376-.369-2.535-1.031-3.478-1.988-.927-.952-1.422-2.029-1.484-3.23l2.643.709c.186 1.233.981 2.039 2.388 2.416.572.153 1.028.17 1.368.054.34-.133.51-.407.51-.823s-.132-.78-.395-1.09c-.262-.31-.703-.628-1.32-.954l-1.902-1.037c-1.978-1.074-2.967-2.547-2.967-4.42 0-1.007.394-1.71 1.182-2.107.788-.412 1.832-.445 3.13-.097 1.252.335 2.28.939 3.083 1.81.804.872 1.252 1.864 1.345 2.976l-2.55-.683c-.248-1.058-.882-1.724-1.901-1.997-.51-.137-.92-.135-1.23.007-.308.125-.463.38-.463.763 0 .688.518 1.307 1.553 1.856l1.948 1.05c2.055 1.095 3.083 2.578 3.083 4.45 0 1.136-.425 1.902-1.275 2.299-.835.384-1.924.396-3.269.036Zm10.58 2.835c-1.33-.356-2.38-1.094-3.153-2.213-.773-1.135-1.16-2.47-1.16-4.006v-7.176l2.55.683v6.744c0 .96.202 1.774.604 2.441a2.796 2.796 0 0 0 1.715 1.276c.865.232 1.553.08 2.063-.455.51-.551.765-1.46.765-2.723v-5.904l2.55.683v12l-2.55-.683v-1.632c-.68 1.066-1.808 1.387-3.384.965Zm8.67 2.083v-18l2.55.683v18l-2.55-.683Zm10.312 2.883c-1.175-.315-2.133-.907-2.875-1.778-.726-.883-1.09-1.972-1.09-3.268v-5.784l-2.41-.646v-2.352l2.41.646v-3.336l2.55.683v3.336l3.316.889v2.352l-3.316-.889V68.7c0 .736.155 1.306.464 1.709.31.386.804.67 1.484.853.556.15 1.012.191 1.368.126v2.352c-.557.027-1.19-.054-1.901-.245Zm8.217 2.322c-1.576-.422-2.905-1.386-3.987-2.892-1.066-1.502-1.6-3.117-1.6-4.845 0-1.728.534-3.057 1.6-3.987 1.082-.926 2.411-1.178 3.987-.756a5.75 5.75 0 0 1 2.18 1.136c.664.53 1.174 1.099 1.53 1.706v-1.608l2.55.683v12l-2.55-.683v-1.608c-.356.417-.866.72-1.53.91-.665.174-1.391.155-2.18-.056Zm-2.016-4.044c.649.91 1.475 1.5 2.48 1.768 1.005.27 1.831.123 2.481-.439.649-.562.973-1.387.973-2.475s-.324-2.087-.973-2.997c-.65-.91-1.476-1.5-2.481-1.769-1.005-.269-1.831-.122-2.48.44-.65.562-.974 1.387-.974 2.475s.324 2.087.974 2.997Zm16.065 7.689c-1.174-.315-2.132-.908-2.874-1.779-.727-.882-1.09-1.972-1.09-3.268v-5.784l-2.411-.646v-2.352l2.411.646v-3.336l2.55.684v3.336l3.315.888v2.352l-3.315-.888v5.352c0 .736.155 1.305.464 1.708.309.387.804.671 1.484.853.556.15 1.012.192 1.367.127v2.352c-.556.027-1.19-.055-1.901-.245Zm4.899-13.424c-.463-.124-.865-.4-1.205-.827-.34-.443-.51-.912-.51-1.408 0-.48.17-.843.51-1.088.34-.26.742-.33 1.205-.205.479.129.881.412 1.206.851.324.423.487.875.487 1.355 0 .496-.163.876-.487 1.141-.325.25-.727.31-1.206.181Zm-1.275 14.275v-12l2.55.683v12l-2.55-.683Zm14.832 2.414c-1.159.89-2.596 1.104-4.311.644-1.716-.46-3.161-1.446-4.335-2.961-1.16-1.527-1.739-3.162-1.739-4.906 0-1.744.579-3.06 1.739-3.95 1.174-.901 2.619-1.122 4.335-.663 1.715.46 3.152 1.453 4.311 2.98 1.175 1.514 1.762 3.144 1.762 4.888 0 1.744-.587 3.067-1.762 3.968Zm-4.311-1.804c1.004.27 1.831.131 2.48-.415.665-.558.997-1.373.997-2.445 0-1.072-.332-2.057-.997-2.955-.649-.91-1.476-1.5-2.48-1.769-1.02-.273-1.863-.13-2.527.427-.649.546-.974 1.355-.974 2.427 0 1.073.325 2.063.974 2.973.664.898 1.507 1.484 2.527 1.757Zm7.943 4.337v-12l2.55.683v1.632c.726-1.053 1.901-1.363 3.523-.928a5.634 5.634 0 0 1 3.223 2.232c.803 1.127 1.205 2.45 1.205 3.97v7.225l-2.55-.684v-6.792c0-.96-.216-1.762-.649-2.406-.433-.66-1.02-1.089-1.762-1.288-.881-.236-1.599-.084-2.156.455-.556.539-.834 1.432-.834 2.68v5.904l-2.55-.683Zm17.149 4.835c-1.376-.369-2.535-1.031-3.478-1.988-.927-.952-1.422-2.029-1.483-3.23l2.642.709c.186 1.233.982 2.039 2.388 2.415.572.154 1.028.172 1.368.055.34-.133.51-.407.51-.823s-.131-.78-.394-1.09c-.263-.31-.703-.628-1.322-.954l-1.9-1.037c-1.979-1.075-2.968-2.547-2.968-4.42 0-1.007.394-1.71 1.182-2.107.789-.412 1.832-.445 3.13-.097 1.252.335 2.28.939 3.083 1.81.804.871 1.252 1.863 1.345 2.976l-2.55-.683c-.247-1.058-.881-1.724-1.901-1.997-.51-.137-.92-.135-1.229.006-.309.126-.463.38-.463.764 0 .688.517 1.307 1.553 1.856l1.947 1.05c2.056 1.095 3.083 2.578 3.083 4.45 0 1.136-.425 1.902-1.275 2.299-.834.384-1.924.396-3.268.036Z"/><rect width="36" height="36" fill="#22263B" rx="18" transform="matrix(.96593 .25882 0 1 233.754 82.634)"/><path fill="#fff" d="M244.545 95.457v2.483l10.3 2.76-11.499 8.823 1.69 2.204 11.5-8.824v10.664l2.398.642V99.312l-14.389-3.855Z"/><path fill="#22263B" d="M121.135 204.377v2.592l-10.896-2.919v-.96c0-.608.085-1.161.255-1.66.186-.51.379-.922.58-1.236.201-.315.533-.634.996-.957.464-.34.82-.573 1.067-.699.247-.141.68-.361 1.298-.66a93.907 93.907 0 0 0 1.206-.565c.973-.475 1.676-.934 2.109-1.378.433-.444.649-1.059.649-1.843s-.232-1.47-.695-2.058c-.464-.604-1.105-1.016-1.924-1.235-.85-.228-1.554-.153-2.11.226-.556.363-.842.991-.858 1.882l-2.573-.689c0-1.616.526-2.795 1.576-3.538 1.067-.738 2.396-.894 3.988-.467a7.174 7.174 0 0 1 3.686 2.331c.989 1.161 1.483 2.55 1.483 4.166 0 1.28-.285 2.283-.857 3.01-.557.715-1.484 1.379-2.782 1.991-.201.106-.572.279-1.113.518s-.943.427-1.205.565a4.098 4.098 0 0 0-.812.646c-.293.273-.494.58-.602.919l7.534 2.018Zm5.852 3.56-2.481 3.464-1.576-.423 1.599-3.099a2.75 2.75 0 0 1-.811-.937 2.68 2.68 0 0 1-.325-1.263c0-.576.194-1.013.58-1.309.386-.313.858-.394 1.414-.245.556.149 1.028.483 1.414 1.003.387.503.58 1.043.58 1.619 0 .464-.132.861-.394 1.19Zm2.917 1.382 4.683-4.841-.255-.068c-1.345-.361-2.543-1.202-3.594-2.523-1.035-1.334-1.553-2.776-1.553-4.328 0-1.632.526-2.86 1.577-3.682 1.066-.818 2.426-1.006 4.08-.563 1.653.443 3.006 1.358 4.056 2.743 1.067 1.39 1.6 2.893 1.6 4.509 0 .816-.155 1.502-.464 2.06-.293.561-.765 1.187-1.414 1.877l-5.517 5.673-3.199-.857Zm2.735-8.555c.588.765 1.322 1.266 2.203 1.502.881.236 1.607.127 2.179-.328.587-.467.881-1.156.881-2.068 0-.88-.294-1.711-.881-2.492-.588-.781-1.314-1.288-2.179-1.52-.866-.232-1.592-.114-2.18.352-.587.467-.88 1.14-.88 2.02 0 .912.285 1.757.857 2.534Zm15.589 13.705c-1.653-.443-3.06-1.332-4.219-2.666-1.144-1.331-1.731-2.84-1.762-4.528l2.55.683c.062.928.41 1.75 1.043 2.463a4.84 4.84 0 0 0 2.388 1.456c.85.228 1.546.182 2.087-.137.556-.315.842-.878.857-1.69 0-.896-.286-1.645-.857-2.246-.557-.613-1.329-1.052-2.319-1.317l-1.298-.348v-2.256l1.298.348c.82.219 1.469.169 1.948-.15.494-.316.749-.831.765-1.547 0-.704-.248-1.338-.742-1.903a3.57 3.57 0 0 0-1.832-1.163c-.865-.232-1.584-.16-2.155.215-.572.358-.858.986-.858 1.882l-2.573-.69c0-1.664.54-2.847 1.622-3.549 1.098-.714 2.419-.864 3.964-.45 1.531.41 2.767 1.19 3.71 2.338.958 1.153 1.437 2.433 1.437 3.841 0 .784-.193 1.461-.58 2.029-.386.552-.865.928-1.437 1.127a5.985 5.985 0 0 1 1.808 2.044c.448.824.673 1.709.673 2.653 0 1.488-.518 2.565-1.554 3.231-1.02.655-2.341.765-3.964.33Zm13.098 3.51c-1.499-.402-2.813-1.242-3.941-2.52-1.128-1.279-1.708-2.618-1.739-4.018l2.62.702c.17.765.533 1.447 1.089 2.044.572.601 1.229 1.001 1.971 1.2.912.244 1.653.139 2.225-.316.572-.471.858-1.146.858-2.026 0-.912-.286-1.741-.858-2.486-.556-.757-1.275-1.254-2.156-1.49-1.329-.356-2.287-.029-2.874.982l-2.295-1.359 1.762-8.888 7.835 2.1v2.568l-5.842-1.566-.765 3.875c.68-.313 1.538-.332 2.573-.054 1.546.414 2.798 1.301 3.756 2.662.958 1.361 1.437 2.897 1.437 4.609 0 1.6-.533 2.777-1.599 3.532-1.051.742-2.404.892-4.057.449Z"/><path fill="#22263B" fill-opacity=".6" d="M111.123 226.287v-8.708l-2.989-.801v-1.232l7.208 1.931v1.232l-2.989-.801v8.708l-1.23-.329Zm7.106 2.044c-1.019-.273-1.867-.85-2.543-1.731-.667-.889-1-1.841-1-2.859 0-1.017.333-1.786 1-2.307.676-.529 1.524-.656 2.543-.383 1.009.27 1.848.85 2.515 1.738.676.881 1.014 1.83 1.014 2.847 0 1.018-.338 1.791-1.014 2.319-.667.521-1.506.646-2.515.376Zm-1.704-2.305a3.033 3.033 0 0 0 1.704 1.185c.694.186 1.257.094 1.69-.275.433-.37.649-.909.649-1.618 0-.71-.216-1.365-.649-1.966a2.98 2.98 0 0 0-1.69-1.181c-.695-.186-1.263-.096-1.704.271-.433.37-.649.909-.649 1.618 0 .71.216 1.365.649 1.966Zm9.137 4.226c-.623-.166-1.123-.482-1.502-.948-.378-.465-.567-1.048-.567-1.748v-3.822l-1.434-.384v-1.106l1.434.384v-1.946l1.163.312v1.946l1.947.521v1.106l-1.947-.521v3.668c0 .438.09.77.27.996.18.226.464.391.852.494.342.092.617.119.825.081v1.078a3.097 3.097 0 0 1-1.041-.111Zm4.949 1.397c-.937-.252-1.726-.818-2.366-1.698-.631-.879-.947-1.822-.947-2.83s.316-1.782.947-2.322c.64-.538 1.429-.682 2.366-.43a3.66 3.66 0 0 1 1.38.719c.432.34.766.719 1 1.136v-1.078l1.163.312v7l-1.163-.312v-1.078c-.234.292-.568.497-1 .614-.424.111-.884.1-1.38-.033Zm.176-1.059c.667.179 1.217.083 1.65-.286.433-.37.649-.914.649-1.632 0-.719-.216-1.379-.649-1.98-.433-.601-.983-.991-1.65-1.17-.676-.181-1.231-.087-1.663.282-.433.369-.649.914-.649 1.632 0 .719.216 1.379.649 1.98.432.601.987.993 1.663 1.174Zm5.286 2.382v-10.5l1.163.312v10.5l-1.163-.312Zm7.251 4.869-1.163-.311v-9.926l1.163.311v1.078c.235-.292.564-.493.988-.603.432-.118.897-.11 1.392.023.938.251 1.722.816 2.353 1.694.641.881.961 1.826.961 2.834s-.32 1.781-.961 2.318c-.631.541-1.415.685-2.353.434a3.857 3.857 0 0 1-1.392-.709 4.061 4.061 0 0 1-.988-1.147v4.004Zm.555-4.471c.433.601.983.991 1.65 1.17.667.179 1.217.083 1.649-.286.433-.37.65-.914.65-1.632 0-.719-.217-1.379-.65-1.98-.432-.601-.982-.991-1.649-1.17-.667-.179-1.217-.084-1.65.286-.433.369-.649.913-.649 1.632 0 .718.216 1.378.649 1.98Zm9.329 4.333c-.938-.251-1.727-.817-2.367-1.698-.631-.878-.946-1.821-.946-2.829 0-1.008.315-1.782.946-2.323.64-.538 1.429-.681 2.367-.43.496.133.955.373 1.379.72.433.34.766.719 1.001 1.136v-1.078l1.163.312v7l-1.163-.312v-1.078c-.235.292-.568.497-1.001.614-.424.11-.883.099-1.379-.034Zm.176-1.058c.667.178 1.217.083 1.649-.286.433-.37.65-.914.65-1.632 0-.719-.217-1.379-.65-1.98-.432-.602-.982-.992-1.649-1.17-.677-.182-1.231-.088-1.664.282-.432.369-.649.913-.649 1.632 0 .719.217 1.379.649 1.98.433.601.987.992 1.664 1.174Zm6.462-6.417c-.153.118-.347.145-.581.082a1.116 1.116 0 0 1-.595-.397 1.096 1.096 0 0 1-.244-.681c0-.234.081-.413.244-.537.162-.125.36-.156.595-.093.234.063.428.199.581.408.153.209.23.43.23.664 0 .242-.077.427-.23.554Zm-1.176 8.799v-7l1.162.311v7l-1.162-.311Zm5.882 1.716c-.937-.251-1.726-.817-2.366-1.698-.631-.878-.947-1.822-.947-2.83s.316-1.782.947-2.322c.64-.538 1.429-.681 2.366-.43.496.133.956.373 1.38.72.432.34.766.718 1 1.136v-4.578l1.163.312v10.5l-1.163-.312v-1.078c-.234.292-.568.496-1 .614-.424.11-.884.099-1.38-.034Zm.176-1.059c.667.179 1.217.084 1.65-.286.433-.369.649-.913.649-1.632 0-.718-.216-1.378-.649-1.98-.433-.601-.983-.991-1.65-1.17-.676-.181-1.23-.087-1.663.283-.433.369-.649.913-.649 1.632 0 .718.216 1.378.649 1.98.433.601.987.992 1.663 1.173Z"/><path fill="#FFB800" d="M236.458 235.14c0 52.467-41.084 83.992-91.763 70.412-50.68-13.579-91.763-67.121-91.763-119.588s41.083-83.991 91.763-70.412c50.679 13.58 91.763 67.121 91.763 119.588ZM75.895 192.117c0 39.338 30.802 79.481 68.8 89.662 37.997 10.181 68.799-13.454 68.799-52.792 0-39.337-30.802-79.48-68.799-89.662-37.998-10.181-68.8 13.455-68.8 52.792Z"/><path fill="#F66" d="M214.539 270.248c5.516 4.715 7.508 12.558 3.718 16.805-12.119 13.579-29.359 21.254-49.106 21.616-19.747.362-40.639-6.615-59.385-19.627-5.864-4.07-7.783-11.915-4.656-16.789 3.127-4.873 10.116-4.9 16.075-1.06 13.35 8.602 27.975 13.177 41.846 12.923 13.871-.254 26.093-5.322 35.052-14.333 4-4.022 10.939-4.25 16.456.465Z"/><path fill="#759EEB" d="M214.539 270.248c5.516 4.715 7.508 12.558 3.718 16.805-7.288 8.165-16.474 14.249-27.048 17.853-10.574 3.604-22.254 4.632-34.336 3.069-6.285-.813-11.487-7.562-11.538-14.14-.05-6.578 5.085-10.466 11.329-9.935 8.047.684 15.808-.186 22.905-2.605 7.097-2.419 13.36-6.328 18.514-11.512 4-4.023 10.939-4.25 16.456.465Z"/><path fill="#FF814B" d="M214.539 270.248c5.516 4.715 7.508 12.558 3.718 16.805a62.972 62.972 0 0 1-17.54 13.751c-5.022 2.662-12.114-1.183-15.328-7.703-3.214-6.521-1.309-13.227 3.547-16.147a47.12 47.12 0 0 0 9.147-7.171c4-4.023 10.939-4.25 16.456.465Z"/><path fill="#22263B" d="M81.583 256.762a3.862 3.862 0 0 1-2.028-1.3c-.534-.654-.8-1.374-.8-2.158 0-.992.39-1.603 1.17-1.834-.51-.545-.764-1.177-.764-1.897 0-.648.224-1.124.672-1.428.456-.302 1.04-.358 1.75-.167a3.313 3.313 0 0 1 1.75 1.105c.456.538.684 1.135.684 1.791 0 .72-.255 1.216-.765 1.487.78.649 1.171 1.47 1.171 2.462 0 .792-.267 1.368-.8 1.73-.525.363-1.205.433-2.04.209Zm0-1.236c.472.126.846.083 1.124-.131.279-.213.418-.528.418-.944 0-.424-.14-.813-.418-1.168a2.02 2.02 0 0 0-1.112-.73c-.472-.126-.846-.083-1.125.131-.278.205-.417.52-.417.944 0 .416.14.805.417 1.168.286.364.657.608 1.113.73Zm0-4.092c.356.095.642.064.858-.094.224-.164.336-.402.336-.714 0-.328-.108-.625-.325-.891a1.599 1.599 0 0 0-.869-.557c-.347-.093-.633-.062-.858.094-.216.158-.324.397-.324.717 0 .312.112.61.336.894.224.276.506.46.846.551Zm5.194 6.6-1.437-.385 3.779-6.224-4.046-1.084v-1.284l5.564 1.491v1.128l-3.86 6.358Zm7.574 2.029-1.345-.36 5.216-7.123 1.345.361-5.216 7.122Zm5.019 1.441c-.634-.17-1.175-.547-1.623-1.131-.44-.582-.66-1.197-.66-1.845 0-.656.22-1.153.66-1.491.448-.344.989-.431 1.623-.261.626.168 1.163.543 1.611 1.128.448.576.672 1.192.672 1.848 0 .648-.224 1.144-.672 1.488-.448.343-.985.432-1.611.264Zm-.835-1.736c.232.302.51.497.835.584.324.087.595.043.811-.131.224-.18.336-.438.336-.774s-.112-.65-.336-.942a1.451 1.451 0 0 0-.811-.577c-.325-.087-.603-.042-.835.136-.224.18-.336.434-.336.762s.112.642.336.942Zm-5.332-3.901c-.633-.169-1.174-.546-1.623-1.13-.44-.582-.66-1.197-.66-1.845 0-.656.22-1.153.66-1.491.449-.344.99-.431 1.623-.262.626.168 1.163.544 1.611 1.128.449.576.673 1.192.673 1.848 0 .648-.224 1.144-.673 1.488-.448.344-.985.432-1.61.264Zm0-1.152c.317.085.587.038.812-.142.231-.178.347-.431.347-.759s-.116-.643-.347-.945c-.225-.3-.495-.493-.812-.578-.324-.086-.599-.04-.823.14-.224.172-.336.426-.336.762s.112.654.336.954c.224.292.499.482.823.568Z"/><path fill="#fff" d="M122.159 289.634c-.749-.201-1.406-.621-1.97-1.26-.564-.64-.854-1.309-.869-2.009l1.309.351c.085.382.267.723.545 1.022.286.3.614.5.985.6.456.122.827.069 1.113-.158.286-.236.429-.573.429-1.013 0-.456-.143-.871-.429-1.243a1.92 1.92 0 0 0-1.078-.745c-.664-.178-1.144-.015-1.437.491l-1.148-.68.881-4.444 3.918 1.05v1.284l-2.921-.783-.382 1.938c.34-.157.768-.166 1.286-.027.773.207 1.399.651 1.878 1.331.479.68.719 1.448.719 2.304 0 .8-.267 1.389-.8 1.766-.526.371-1.202.446-2.029.225Zm6.845 1.714-1.345-.361 5.216-7.122 1.345.36-5.216 7.123Zm5.019 1.44c-.634-.169-1.175-.546-1.623-1.13-.441-.582-.661-1.197-.661-1.845 0-.656.22-1.153.661-1.491.448-.344.989-.431 1.623-.262.626.168 1.163.544 1.611 1.128.448.576.672 1.192.672 1.848 0 .648-.224 1.144-.672 1.488-.448.344-.985.432-1.611.264Zm-.835-1.735c.232.302.51.496.835.583.324.087.595.044.811-.13.224-.18.336-.438.336-.774s-.112-.65-.336-.942a1.453 1.453 0 0 0-.811-.578c-.325-.087-.603-.041-.835.137-.224.18-.336.434-.336.762s.112.642.336.942Zm-5.332-3.901c-.634-.17-1.174-.547-1.623-1.131-.44-.582-.66-1.197-.66-1.845 0-.656.22-1.153.66-1.491.449-.344.989-.431 1.623-.261.626.168 1.163.544 1.611 1.128.448.576.673 1.192.673 1.848 0 .648-.225 1.144-.673 1.488-.448.344-.985.432-1.611.264Zm0-1.152c.317.085.587.037.812-.143.231-.177.347-.43.347-.758s-.116-.643-.347-.946c-.225-.3-.495-.492-.812-.577-.324-.087-.599-.04-.823.14-.224.171-.336.425-.336.761s.112.654.336.955c.224.292.499.481.823.568Zm35.243 14.484v-2.136l-4.254-1.14v-1.068l4.393-4.139 1.136.305v5.16l1.101.295v1.224l-1.101-.295v2.136l-1.275-.342Zm-2.655-4.071 2.655.711v-3.192l-2.655 2.481Zm9.006 5.773-1.344-.36 5.216-7.123 1.344.36-5.216 7.123Zm5.019 1.441c-.633-.17-1.174-.547-1.622-1.131-.441-.582-.661-1.197-.661-1.845 0-.656.22-1.153.661-1.491.448-.344.989-.431 1.622-.261.626.167 1.163.543 1.612 1.127.448.576.672 1.192.672 1.848 0 .648-.224 1.144-.672 1.488-.449.344-.986.432-1.612.265Zm-.834-1.736c.232.302.51.497.834.584.325.087.595.043.812-.131.224-.18.336-.438.336-.774s-.112-.65-.336-.942a1.453 1.453 0 0 0-.812-.577c-.324-.087-.602-.042-.834.136-.224.18-.336.434-.336.762s.112.642.336.942Zm-5.332-3.901c-.634-.169-1.175-.546-1.623-1.13-.44-.582-.661-1.198-.661-1.846 0-.656.221-1.152.661-1.49.448-.344.989-.431 1.623-.262.626.168 1.163.544 1.611 1.128.448.576.672 1.192.672 1.848 0 .648-.224 1.144-.672 1.488-.448.344-.985.432-1.611.264Zm0-1.152c.317.085.587.038.811-.142.232-.178.348-.431.348-.759s-.116-.643-.348-.945c-.224-.3-.494-.493-.811-.578-.325-.087-.599-.04-.823.14-.224.172-.336.426-.336.762s.112.654.336.954c.224.292.498.481.823.568Zm28.604-9.296v-2.136l-4.254-1.139v-1.068l4.393-4.139 1.136.304v5.16l1.102.295v1.224l-1.102-.295v2.136l-1.275-.342Zm-2.654-4.071 2.654.711v-3.192l-2.654 2.481Zm9.006 5.773-1.345-.36 5.216-7.122 1.345.36-5.216 7.122Zm5.019 1.441c-.634-.17-1.175-.546-1.623-1.131-.44-.582-.66-1.197-.66-1.845 0-.656.22-1.153.66-1.491.448-.343.989-.431 1.623-.261.626.168 1.163.544 1.611 1.128.448.576.672 1.192.672 1.848 0 .648-.224 1.144-.672 1.488-.448.344-.985.432-1.611.264Zm-.835-1.735c.232.302.51.496.835.583.325.087.595.044.811-.13.224-.18.336-.438.336-.774s-.112-.65-.336-.942a1.45 1.45 0 0 0-.811-.578c-.325-.087-.603-.041-.835.137-.224.18-.336.434-.336.762s.112.642.336.942Zm-5.332-3.901c-.633-.17-1.174-.547-1.622-1.131-.441-.582-.661-1.197-.661-1.845 0-.656.22-1.153.661-1.491.448-.344.989-.431 1.622-.261.626.168 1.163.544 1.612 1.128.448.576.672 1.192.672 1.848 0 .648-.224 1.144-.672 1.488-.449.344-.986.432-1.612.264Zm0-1.152c.317.085.588.037.812-.143.232-.178.348-.43.348-.758s-.116-.644-.348-.946c-.224-.3-.495-.492-.812-.577-.324-.087-.598-.041-.822.139-.225.172-.337.426-.337.762s.112.654.337.954c.224.292.498.482.822.569Z"/><circle cx="6" cy="6" r="6" fill="#FFB800" transform="matrix(.96593 .25882 0 1 19.318 287.676)"/><path fill="#22263B" d="M45.222 297.073c.613.762.92 1.6.92 2.515 0 .914-.307 1.588-.92 2.021-.604.426-1.397.508-2.38.244l-1.676-.449v3.626l-1.258-.337v-9.94l2.934.786c.983.264 1.776.775 2.38 1.534Zm-.879 3.433c.37-.265.555-.682.555-1.252a2.42 2.42 0 0 0-.555-1.548c-.36-.461-.86-.777-1.5-.949l-1.678-.449v3.892l1.677.449c.64.172 1.14.124 1.501-.143Zm5.14 6.893c-.757-.203-1.393-.565-1.906-1.085a2.859 2.859 0 0 1-.839-1.821l1.19.319c.072.411.253.749.541 1.013.297.266.64.452 1.028.555.387.104.698.108.933.012.243-.093.365-.289.365-.588 0-.28-.09-.533-.27-.758-.172-.223-.456-.444-.852-.662l-.974-.527c-1.163-.629-1.745-1.471-1.745-2.526 0-.569.217-.968.65-1.198.441-.227 1.005-.248 1.69-.065.694.186 1.262.53 1.704 1.031.45.494.703 1.037.757 1.631l-1.163-.312a1.931 1.931 0 0 0-.487-.858 1.708 1.708 0 0 0-.811-.484c-.334-.089-.613-.085-.839.013-.216.101-.324.282-.324.543 0 .252.081.48.243.682.163.202.424.403.785.602l1.081.584c1.154.608 1.731 1.453 1.731 2.536 0 .672-.23 1.119-.69 1.341-.459.213-1.059.22-1.798.022Zm5.545 4.271-1.298-.347 1.474-2.895-2.962-7.43 1.285.344 2.326 5.944 2.312-4.701 1.298.348-4.435 8.737Zm8.183-.593c-1.019-.273-1.862-.849-2.529-1.727-.667-.889-1-1.841-1-2.859 0-1.017.333-1.786 1-2.307.667-.531 1.51-.66 2.529-.387a4.574 4.574 0 0 1 2.177 1.312 4.84 4.84 0 0 1 1.23 2.205l-1.243-.333a3.187 3.187 0 0 0-.812-1.309 2.997 2.997 0 0 0-1.352-.769c-.694-.186-1.262-.095-1.704.272-.433.369-.65.913-.65 1.632 0 .718.217 1.378.65 1.98.442.603 1.01.998 1.704 1.184.523.14.974.126 1.352-.043.379-.17.65-.461.812-.875l1.244.333c-.199.722-.604 1.243-1.217 1.564-.613.312-1.344.354-2.191.127Zm5.84 1.425-1.163-.312v-10.5l1.163.312v4.578c.46-.689 1.177-.903 2.15-.642a3.295 3.295 0 0 1 1.853 1.267c.469.639.703 1.387.703 2.246v4.312l-1.15-.308v-4.13c0-.588-.143-1.089-.432-1.502a1.988 1.988 0 0 0-1.163-.829c-.559-.15-1.028-.047-1.406.309-.37.358-.555.934-.555 1.727v3.472Zm9.532 2.694c-1.019-.273-1.866-.85-2.542-1.731-.667-.888-1-1.841-1-2.858 0-1.018.333-1.787 1-2.308.676-.528 1.523-.656 2.542-.383 1.01.271 1.848.85 2.516 1.738.676.881 1.014 1.831 1.014 2.848s-.338 1.79-1.014 2.318c-.668.521-1.506.647-2.516.376Zm-1.704-2.304c.442.603 1.01.998 1.704 1.184.694.186 1.258.094 1.69-.275.433-.369.65-.909.65-1.618 0-.709-.217-1.365-.65-1.966a2.985 2.985 0 0 0-1.69-1.181c-.694-.186-1.262-.095-1.704.272-.432.369-.649.908-.649 1.618 0 .709.217 1.364.65 1.966Zm6.633 3.485v-10.5l1.163.311v10.5l-1.163-.311Zm6.099 1.774c-1.019-.273-1.866-.85-2.543-1.731-.667-.888-1-1.841-1-2.858 0-1.018.333-1.787 1-2.308.677-.528 1.524-.656 2.543-.383 1.01.271 1.848.85 2.515 1.738.676.881 1.014 1.83 1.014 2.848 0 1.017-.338 1.79-1.014 2.318-.667.521-1.505.647-2.515.376Zm-1.704-2.305c.442.604 1.01.999 1.704 1.185.694.186 1.257.094 1.69-.275.433-.369.65-.909.65-1.618 0-.709-.217-1.365-.65-1.966a2.985 2.985 0 0 0-1.69-1.181c-.694-.186-1.262-.096-1.704.271-.433.37-.65.909-.65 1.619 0 .709.217 1.364.65 1.965Zm9.607 7.349c-.892-.239-1.636-.667-2.231-1.284-.586-.605-.933-1.277-1.041-2.015l1.136.304c.297.985 1.018 1.631 2.163 1.938.64.171 1.154.094 1.542-.231.397-.314.595-.853.595-1.619v-.826a1.826 1.826 0 0 1-.987.632c-.415.113-.87.103-1.366-.03-.947-.254-1.736-.806-2.367-1.656-.63-.86-.946-1.794-.946-2.802 0-.998.315-1.754.946-2.266.64-.519 1.43-.653 2.367-.402.496.133.951.367 1.366.702.414.335.743.717.987 1.146v-1.078l1.163.312v6.566c0 1.12-.316 1.899-.947 2.336-.622.44-1.415.531-2.38.273Zm-1.677-5.336c.424.571.974.947 1.65 1.128.676.182 1.226.1 1.65-.243.424-.354.635-.885.635-1.594 0-.709-.216-1.351-.649-1.924a2.915 2.915 0 0 0-1.636-1.139c-.667-.178-1.217-.092-1.65.258-.423.344-.635.871-.635 1.58 0 .709.212 1.354.635 1.934Zm8.1-5.123c-.154.117-.347.145-.582.082a1.121 1.121 0 0 1-.595-.398 1.097 1.097 0 0 1-.243-.681c0-.233.081-.412.243-.537.162-.124.361-.155.595-.092.235.063.428.199.582.408.153.209.23.43.23.663 0 .243-.077.428-.23.555Zm-1.177 8.798v-7l1.163.312v7l-1.163-.312Zm5.274 1.554a4.125 4.125 0 0 1-1.906-1.085 2.858 2.858 0 0 1-.839-1.821l1.19.319c.072.411.253.749.541 1.013.298.266.64.451 1.028.555.388.104.699.108.933.012.243-.093.365-.289.365-.588 0-.28-.09-.533-.27-.758-.172-.224-.456-.444-.852-.663l-.974-.527c-1.163-.629-1.744-1.47-1.744-2.525 0-.569.216-.969.649-1.198.441-.227 1.005-.249 1.69-.065.694.186 1.262.529 1.704 1.03.451.495.703 1.038.757 1.631l-1.163-.311a1.927 1.927 0 0 0-.487-.859 1.702 1.702 0 0 0-.811-.483c-.333-.09-.613-.085-.838.013-.217.101-.325.282-.325.543 0 .252.081.479.244.681.162.203.423.403.784.603l1.082.584c1.154.607 1.731 1.453 1.731 2.535 0 .672-.23 1.119-.69 1.342-.46.212-1.059.22-1.799.022Zm6.383 1.64c-.622-.167-1.122-.483-1.501-.948-.379-.466-.568-1.049-.568-1.749v-3.822l-1.433-.384v-1.106l1.433.384v-1.946l1.163.312v1.946l1.947.522v1.106l-1.947-.522v3.668c0 .439.09.771.27.997.181.225.465.39.852.494.343.092.618.119.825.081v1.078a3.102 3.102 0 0 1-1.041-.111Z"/><circle cx="6" cy="6" r="6" fill="#F66" transform="matrix(.96593 .25882 0 1 19.318 312.676)"/><path fill="#22263B" d="M45.222 322.073c.613.762.92 1.6.92 2.515 0 .914-.307 1.588-.92 2.021-.604.426-1.397.508-2.38.244l-1.676-.449v3.626l-1.258-.337v-9.94l2.934.786c.983.264 1.776.775 2.38 1.534Zm-.879 3.433c.37-.265.555-.682.555-1.252a2.42 2.42 0 0 0-.555-1.548c-.36-.461-.86-.777-1.5-.949l-1.678-.449v3.892l1.677.449c.64.172 1.14.124 1.501-.143Zm5.005 6.857c-.757-.203-1.393-.565-1.907-1.085a2.86 2.86 0 0 1-.838-1.821l1.19.319c.072.411.252.749.54 1.013.298.266.64.451 1.029.555.387.104.698.108.933.012.243-.093.365-.289.365-.588 0-.28-.09-.533-.27-.758-.172-.224-.456-.444-.853-.663l-.973-.527c-1.163-.629-1.745-1.47-1.745-2.525 0-.569.216-.969.65-1.198.441-.227 1.005-.249 1.69-.065.694.186 1.262.529 1.703 1.03.451.495.704 1.038.758 1.631l-1.163-.311a1.933 1.933 0 0 0-.487-.859 1.707 1.707 0 0 0-.811-.483c-.334-.089-.613-.085-.839.013-.216.101-.324.282-.324.543 0 .252.08.479.243.681.162.203.424.403.784.603l1.082.584c1.154.607 1.731 1.453 1.731 2.535 0 .672-.23 1.119-.69 1.342-.46.212-1.059.22-1.798.022Zm5.41 4.235-1.299-.348 1.474-2.895-2.962-7.429 1.285.344 2.326 5.943 2.313-4.7 1.298.348-4.436 8.737Zm8.047-.63c-1.019-.273-1.861-.848-2.529-1.727-.667-.888-1-1.841-1-2.858 0-1.018.333-1.787 1-2.308.667-.531 1.51-.66 2.53-.387A4.574 4.574 0 0 1 64.981 330a4.839 4.839 0 0 1 1.231 2.206l-1.244-.334a3.187 3.187 0 0 0-.811-1.309 3.015 3.015 0 0 0-1.353-.769c-.694-.186-1.262-.095-1.704.272-.432.369-.649.913-.649 1.632 0 .719.217 1.379.65 1.98a3.032 3.032 0 0 0 1.703 1.184c.523.141.974.126 1.352-.043.38-.169.65-.461.812-.875l1.244.334c-.198.721-.604 1.242-1.217 1.563-.613.312-1.343.355-2.19.127Zm5.705 1.389-1.163-.311v-10.5l1.163.311v4.578c.46-.689 1.177-.903 2.15-.642a3.295 3.295 0 0 1 1.853 1.267c.469.639.703 1.387.703 2.246v4.312l-1.149-.308v-4.13c0-.588-.144-1.089-.433-1.502a1.993 1.993 0 0 0-1.163-.829c-.559-.15-1.028-.047-1.406.309-.37.358-.555.934-.555 1.727v3.472Zm9.397 2.658c-1.019-.273-1.866-.85-2.542-1.731-.667-.888-1-1.841-1-2.858 0-1.018.333-1.787 1-2.308.676-.528 1.523-.656 2.542-.383 1.01.271 1.848.85 2.515 1.738.677.881 1.015 1.83 1.015 2.848 0 1.017-.338 1.79-1.015 2.318-.667.521-1.505.647-2.515.376Zm-1.704-2.305c.442.604 1.01.999 1.704 1.185.694.186 1.258.094 1.69-.275.433-.369.65-.909.65-1.618 0-.709-.217-1.365-.65-1.966a2.985 2.985 0 0 0-1.69-1.181c-.694-.186-1.262-.096-1.704.271-.433.37-.649.909-.649 1.619 0 .709.216 1.364.65 1.965Zm9.002 4.19c-.622-.166-1.123-.482-1.501-.948-.379-.465-.568-1.048-.568-1.748v-3.822l-1.434-.384v-1.106l1.434.384v-1.946l1.163.312v1.946l1.947.521v1.106l-1.947-.521v3.668c0 .438.09.77.27.996.18.226.465.391.852.494.343.092.618.119.825.081v1.078a3.101 3.101 0 0 1-1.041-.111Zm3.284.81-1.163-.311v-10.5l1.163.311v4.578c.46-.688 1.176-.902 2.15-.641a3.288 3.288 0 0 1 1.853 1.266c.469.639.703 1.388.703 2.246v4.312l-1.15-.308v-4.13c0-.588-.144-1.088-.432-1.502a1.993 1.993 0 0 0-1.163-.829c-.56-.15-1.028-.047-1.407.309-.37.358-.554.934-.554 1.727v3.472Zm9.275 2.626c-.983-.264-1.799-.828-2.448-1.692-.64-.862-.96-1.816-.96-2.861 0-1.055.311-1.84.933-2.354.631-.522 1.465-.644 2.502-.366 1.046.28 1.866.883 2.461 1.807.595.925.857 1.933.785 3.025l-5.504-1.475c.018.639.243 1.232.676 1.777.433.536.955.886 1.569 1.05.919.247 1.573.03 1.96-.65l1.19.319a2.045 2.045 0 0 1-1.095 1.33c-.559.28-1.249.309-2.069.09Zm1.325-5.357a2.617 2.617 0 0 0-1.339-.863c-.522-.14-.991-.102-1.406.113-.406.218-.658.636-.757 1.253l4.219 1.131c-.108-.664-.347-1.209-.717-1.634Zm3.22 6.434v-7l1.163.312v1.358a1.32 1.32 0 0 1 .73-.84c.37-.163.758-.189 1.163-.081.199.054.374.119.528.198v1.246a1.925 1.925 0 0 0-.636-.283 1.27 1.27 0 0 0-1.244.297c-.361.323-.541.868-.541 1.633v3.472l-1.163-.312Zm7.108 2.045c-.938-.251-1.727-.817-2.367-1.698-.631-.879-.946-1.822-.946-2.83s.315-1.782.946-2.322c.64-.538 1.429-.681 2.367-.43.496.133.955.373 1.379.72.433.34.766.718 1.001 1.136v-1.078l1.163.311v7l-1.163-.311v-1.078c-.235.292-.568.496-1.001.614-.424.11-.883.099-1.379-.034Zm.176-1.059c.667.179 1.217.084 1.649-.286.433-.369.65-.913.65-1.632 0-.719-.217-1.379-.65-1.98-.432-.601-.982-.991-1.649-1.17-.676-.181-1.231-.087-1.664.282-.432.37-.649.914-.649 1.633 0 .718.217 1.378.649 1.979.433.602.988.993 1.664 1.174Zm6.313 5.584-1.163-.312v-9.926l1.163.312v1.078c.235-.292.564-.493.987-.604.433-.117.897-.109 1.393.024.938.251 1.722.816 2.353 1.694.64.881.96 1.825.96 2.833 0 1.008-.32 1.781-.96 2.319-.631.54-1.415.685-2.353.434a3.864 3.864 0 0 1-1.393-.71 4.07 4.07 0 0 1-.987-1.146v4.004Zm.555-4.472c.432.602.982.992 1.65 1.17.667.179 1.217.084 1.649-.285.433-.37.649-.914.649-1.633 0-.718-.216-1.378-.649-1.979-.432-.602-.982-.992-1.649-1.171-.668-.178-1.218-.083-1.65.286-.433.37-.649.914-.649 1.632 0 .719.216 1.379.649 1.98Zm7.584-5.387c-.153.117-.347.145-.581.082a1.117 1.117 0 0 1-.595-.398 1.092 1.092 0 0 1-.244-.681c0-.233.081-.412.244-.537.162-.124.36-.155.595-.092.234.063.428.199.581.408.153.209.23.43.23.663 0 .243-.077.428-.23.555Zm-1.176 8.798v-7l1.163.312v7l-1.163-.312Zm5.139 1.517a4.113 4.113 0 0 1-1.907-1.084 2.857 2.857 0 0 1-.838-1.821l1.19.319c.072.411.252.749.541 1.013.297.266.64.451 1.027.555.388.104.699.108.933.012.244-.093.365-.289.365-.588 0-.28-.09-.533-.27-.759-.171-.223-.455-.444-.852-.662l-.974-.527c-1.163-.629-1.744-1.47-1.744-2.525 0-.569.216-.969.649-1.198.442-.227 1.005-.249 1.69-.065.695.186 1.263.529 1.704 1.03.451.494.704 1.038.758 1.631l-1.163-.311a1.94 1.94 0 0 0-.487-.859 1.702 1.702 0 0 0-.812-.483c-.333-.09-.613-.085-.838.013-.216.101-.325.282-.325.543 0 .252.082.479.244.681.162.202.424.403.784.602l1.082.584c1.154.608 1.731 1.453 1.731 2.536 0 .672-.23 1.119-.69 1.341-.459.213-1.059.221-1.798.022Zm6.247 1.604c-.622-.166-1.122-.482-1.501-.948-.379-.465-.568-1.048-.568-1.748v-3.822l-1.433-.384v-1.106l1.433.384v-1.946l1.163.312v1.946l1.947.521v1.106l-1.947-.521v3.668c0 .438.09.77.271.996.18.226.464.391.852.494.342.092.617.119.824.081v1.078a3.102 3.102 0 0 1-1.041-.111Z"/><circle cx="6" cy="6" r="6" fill="#759EEB" transform="matrix(.96593 .25882 0 1 147.787 322.099)"/><path fill="#22263B" d="M172.704 340.444c-1.415-.38-2.601-1.187-3.557-2.423-.946-1.243-1.419-2.593-1.419-4.049 0-1.456.473-2.547 1.419-3.273.956-.734 2.142-.911 3.557-.531a6.238 6.238 0 0 1 2.989 1.808c.847.899 1.383 1.855 1.609 2.867l-1.325-.355c-.226-.704-.636-1.341-1.231-1.911a4.54 4.54 0 0 0-2.042-1.177c-1.064-.286-1.952-.145-2.664.42-.703.558-1.055 1.388-1.055 2.489s.352 2.124 1.055 3.069c.712.937 1.6 1.548 2.664 1.834.775.207 1.456.184 2.042-.069.595-.261 1.005-.683 1.231-1.267l1.325.355c-.226.892-.762 1.56-1.609 2.005-.839.448-1.835.517-2.989.208Zm8.75 2.316c-1.018-.273-1.866-.85-2.542-1.731-.667-.888-1.001-1.841-1.001-2.858 0-1.017.334-1.787 1.001-2.308.676-.528 1.524-.656 2.542-.383 1.01.271 1.849.85 2.516 1.738.676.881 1.014 1.831 1.014 2.848s-.338 1.79-1.014 2.318c-.667.521-1.506.647-2.516.376Zm-1.703-2.304a3.037 3.037 0 0 0 1.703 1.184c.695.186 1.258.095 1.691-.275.433-.369.649-.909.649-1.618 0-.709-.216-1.365-.649-1.966a2.984 2.984 0 0 0-1.691-1.181c-.694-.186-1.262-.095-1.703.272-.433.369-.65.908-.65 1.618 0 .709.217 1.364.65 1.966Zm9.282 4.335c-.937-.251-1.726-.817-2.366-1.698-.631-.879-.947-1.822-.947-2.83s.316-1.782.947-2.322c.64-.538 1.429-.681 2.366-.43.496.133.956.373 1.38.72.432.339.766.718 1 1.136v-1.078l1.163.311v7l-1.163-.311v-1.078c-.234.292-.568.496-1 .614-.424.11-.884.099-1.38-.034Zm.176-1.059c.667.179 1.217.084 1.65-.286.433-.369.649-.913.649-1.632 0-.719-.216-1.379-.649-1.98-.433-.601-.983-.991-1.65-1.17-.676-.181-1.23-.087-1.663.282-.433.37-.649.914-.649 1.632 0 .719.216 1.379.649 1.98.433.602.987.993 1.663 1.174Zm8.153 3.291c-1.019-.273-1.862-.849-2.529-1.728-.667-.888-1.001-1.841-1.001-2.858 0-1.017.334-1.787 1.001-2.308.667-.531 1.51-.659 2.529-.386a4.565 4.565 0 0 1 2.177 1.311 4.845 4.845 0 0 1 1.231 2.206l-1.244-.334a3.198 3.198 0 0 0-.812-1.309 3 3 0 0 0-1.352-.768c-.694-.186-1.262-.096-1.704.271-.433.369-.649.913-.649 1.632 0 .719.216 1.379.649 1.98.442.604 1.01.999 1.704 1.185.523.14.974.125 1.352-.044.379-.169.649-.461.812-.875l1.244.334c-.199.721-.604 1.243-1.217 1.564-.613.311-1.344.354-2.191.127Zm5.705 1.388-1.163-.311v-10.5l1.163.311v4.578c.46-.689 1.177-.902 2.15-.642a3.294 3.294 0 0 1 1.853 1.267c.469.639.703 1.388.703 2.246v4.312l-1.149-.308v-4.13c0-.588-.145-1.088-.433-1.502a1.994 1.994 0 0 0-1.163-.829c-.559-.15-1.028-.047-1.406.309-.37.358-.555.934-.555 1.727v3.472Z"/><circle cx="6" cy="6" r="6" fill="#FF814B" transform="matrix(.96593 .25882 0 1 147.787 347.099)"/><path fill="#22263B" d="M172.704 365.444c-1.415-.38-2.601-1.187-3.557-2.423-.946-1.243-1.419-2.593-1.419-4.049 0-1.456.473-2.547 1.419-3.273.956-.734 2.142-.911 3.557-.531 1.082.289 2.037.849 2.867 1.678.829.819 1.388 1.702 1.677 2.647l-1.393-.373a4.75 4.75 0 0 0-1.244-1.692 4.65 4.65 0 0 0-1.907-1.028c-1.064-.286-1.952-.145-2.664.42-.703.558-1.055 1.388-1.055 2.489s.352 2.124 1.055 3.069c.712.937 1.6 1.548 2.664 1.834.983.263 1.79.162 2.421-.304.64-.463 1.005-1.182 1.095-2.156l-3.57-.957v-1.218l4.868 1.304c.126 1.789-.279 3.094-1.217 3.916-.938.822-2.137 1.038-3.597.647Zm8.647 2.288a3.182 3.182 0 0 1-1.799-1.251c-.459-.646-.689-1.399-.689-2.257v-4.298l1.163.311v4.116c0 .588.135 1.091.405 1.509.28.42.654.693 1.123.819.541.145.987.036 1.339-.327.36-.371.54-.948.54-1.732v-3.472l1.163.312v7l-1.163-.312v-1.078c-.441.694-1.135.914-2.082.66Zm6.344-7.554c-.154.118-.347.145-.582.082a1.12 1.12 0 0 1-.595-.397 1.099 1.099 0 0 1-.243-.681c0-.234.081-.412.243-.537.162-.125.361-.155.595-.093.235.063.428.199.582.408.153.209.229.43.229.664 0 .242-.076.427-.229.554Zm-1.177 8.799v-7l1.163.312v7l-1.163-.312Zm5.883 1.716c-.938-.251-1.727-.817-2.367-1.698-.631-.878-.946-1.821-.946-2.829 0-1.008.315-1.783.946-2.323.64-.538 1.429-.681 2.367-.43a3.65 3.65 0 0 1 1.379.72c.433.34.767.719 1.001 1.136v-4.578l1.163.312v10.5l-1.163-.312v-1.078c-.234.292-.568.496-1.001.614-.423.11-.883.099-1.379-.034Zm.176-1.059c.667.179 1.217.084 1.65-.286.432-.369.649-.913.649-1.632 0-.718-.217-1.378-.649-1.98-.433-.601-.983-.991-1.65-1.17-.676-.181-1.231-.087-1.664.283-.432.369-.649.913-.649 1.632 0 .718.217 1.378.649 1.98.433.601.988.992 1.664 1.173Zm8.166 3.295c-.983-.264-1.799-.828-2.448-1.692-.64-.862-.96-1.816-.96-2.862 0-1.054.311-1.839.933-2.354.631-.521 1.465-.643 2.502-.365 1.046.28 1.866.882 2.461 1.807.595.925.857 1.933.785 3.024l-5.504-1.474c.018.639.243 1.232.676 1.777.433.536.955.886 1.569 1.05.919.247 1.573.03 1.96-.65l1.19.318a2.044 2.044 0 0 1-1.095 1.331c-.559.279-1.249.309-2.069.09Zm1.325-5.357a2.614 2.614 0 0 0-1.339-.863c-.522-.14-.991-.102-1.406.113-.406.218-.658.636-.757 1.253l4.219 1.131c-.108-.664-.347-1.209-.717-1.634Zm8.524 7.996c-.757-.203-1.393-.565-1.907-1.085a2.857 2.857 0 0 1-.838-1.821l1.19.319c.072.411.252.749.541 1.013.297.266.64.451 1.027.555.388.104.699.108.934.012.243-.093.365-.289.365-.588 0-.28-.09-.533-.271-.758-.171-.224-.455-.444-.852-.663l-.973-.527c-1.163-.629-1.745-1.47-1.745-2.525 0-.569.217-.969.649-1.198.442-.227 1.005-.249 1.691-.065.694.186 1.262.529 1.704 1.03.45.494.703 1.038.757 1.631l-1.163-.311a1.937 1.937 0 0 0-.487-.859 1.706 1.706 0 0 0-.811-.483c-.334-.09-.613-.085-.839.013-.216.101-.324.282-.324.543 0 .252.081.479.243.681.162.203.424.403.784.603l1.082.583c1.154.608 1.731 1.454 1.731 2.536 0 .672-.23 1.119-.69 1.341-.459.213-1.059.221-1.798.023Zm6.745 1.807c-.983-.263-1.798-.827-2.448-1.692-.64-.862-.96-1.816-.96-2.861 0-1.055.311-1.84.933-2.354.632-.522 1.465-.644 2.502-.366 1.046.28 1.866.883 2.461 1.808a4.86 4.86 0 0 1 .785 3.024l-5.504-1.475c.018.64.243 1.232.676 1.777.433.536.956.886 1.569 1.051.919.246 1.573.029 1.96-.651l1.191.319a2.047 2.047 0 0 1-1.096 1.33c-.559.28-1.248.31-2.069.09Zm1.325-5.357a2.612 2.612 0 0 0-1.338-.863c-.523-.14-.992-.102-1.407.113-.405.218-.658.636-.757 1.254l4.219 1.13c-.108-.664-.347-1.208-.717-1.634Zm5.533 7.194c-.758-.203-1.393-.564-1.907-1.085a2.859 2.859 0 0 1-.839-1.82l1.191.319c.072.411.252.749.54 1.013.298.266.641.451 1.028.555.388.104.699.108.933.012.244-.093.365-.289.365-.588 0-.28-.09-.533-.27-.759-.171-.223-.455-.444-.852-.662l-.974-.527c-1.163-.629-1.744-1.471-1.744-2.525 0-.57.216-.969.649-1.198.442-.227 1.005-.249 1.69-.065.695.186 1.262.529 1.704 1.03.451.494.703 1.038.758 1.631l-1.163-.311a1.94 1.94 0 0 0-.487-.859 1.702 1.702 0 0 0-.812-.483c-.333-.09-.613-.085-.838.013-.216.101-.325.282-.325.543 0 .252.081.479.244.681.162.202.423.403.784.602l1.082.584c1.154.608 1.731 1.453 1.731 2.536 0 .672-.23 1.119-.69 1.341-.46.213-1.059.22-1.798.022Zm6.042 1.619c-.758-.203-1.393-.564-1.907-1.085a2.855 2.855 0 0 1-.838-1.82l1.19.319c.072.411.252.749.54 1.013.298.266.641.451 1.028.555.388.104.699.108.933.012.244-.093.365-.29.365-.588 0-.28-.09-.533-.27-.759-.171-.223-.455-.444-.852-.662l-.974-.527c-1.163-.629-1.744-1.471-1.744-2.525 0-.57.216-.969.649-1.198.442-.227 1.005-.249 1.69-.065.695.186 1.262.529 1.704 1.03.451.494.703 1.038.758 1.631l-1.163-.312a1.943 1.943 0 0 0-.487-.858 1.702 1.702 0 0 0-.812-.483c-.333-.09-.613-.085-.838.013-.216.101-.325.282-.325.543 0 .252.082.479.244.681.162.202.424.403.784.602l1.082.584c1.154.608 1.731 1.453 1.731 2.536 0 .672-.23 1.119-.69 1.341-.46.213-1.059.22-1.798.022Zm5.041-7.903c-.153.118-.347.145-.581.082a1.122 1.122 0 0 1-.596-.397 1.101 1.101 0 0 1-.243-.681c0-.234.081-.413.243-.537.163-.125.361-.155.596-.093.234.063.428.199.581.408.153.209.23.43.23.664 0 .242-.077.427-.23.554Zm-1.177 8.799v-7l1.163.312v7l-1.163-.312Zm6.1 1.774c-1.019-.273-1.867-.85-2.543-1.731-.667-.888-1-1.841-1-2.858 0-1.017.333-1.787 1-2.308.676-.528 1.524-.656 2.543-.383 1.009.271 1.848.85 2.515 1.738.676.881 1.014 1.831 1.014 2.848s-.338 1.79-1.014 2.318c-.667.521-1.506.647-2.515.376Zm-1.704-2.304c.442.603 1.009.998 1.704 1.184.694.186 1.257.095 1.69-.275.433-.369.649-.909.649-1.618 0-.709-.216-1.365-.649-1.966a2.985 2.985 0 0 0-1.69-1.181c-.695-.186-1.262-.095-1.704.272-.433.369-.649.908-.649 1.618 0 .709.216 1.364.649 1.966Zm6.632 3.485v-7l1.163.311v1.078c.46-.688 1.177-.902 2.15-.642a3.297 3.297 0 0 1 1.853 1.267c.469.639.703 1.388.703 2.246v4.312l-1.149-.308v-4.13c0-.588-.145-1.088-.433-1.502a1.994 1.994 0 0 0-1.163-.829c-.559-.15-1.028-.047-1.407.309-.369.358-.554.934-.554 1.727v3.472l-1.163-.311Z"/></svg>